<svg width="110" height="70" viewBox="0 0 110 70" fill="none" xmlns="http://www.w3.org/2000/svg">
<g filter="url(#filter0_d_113_133)">
<path d="M20.82 8.835C20.82 8.29833 21.0417 8.03 21.485 8.03H28.135C28.555 8.03 28.765 8.275 28.765 8.765V27.77C28.765 28.0967 28.905 28.26 29.185 28.26H39.72C40.2567 28.26 40.525 28.4817 40.525 28.925V33.23C40.525 33.44 40.455 33.6267 40.315 33.79C40.175 33.93 39.9533 34 39.65 34H21.765C21.3917 34 21.135 33.93 20.995 33.79C20.8783 33.65 20.82 33.4283 20.82 33.125V8.835ZM49.9252 32.985C49.9252 33.3583 49.8319 33.6267 49.6452 33.79C49.4586 33.93 49.1669 34 48.7702 34H43.8352C43.4852 34 43.2402 33.93 43.1002 33.79C42.9836 33.65 42.9252 33.4283 42.9252 33.125V16.255C42.9252 15.7183 43.1469 15.45 43.5902 15.45H49.2952C49.7152 15.45 49.9252 15.6833 49.9252 16.15V32.985ZM49.9252 12.895C49.9252 13.5717 49.5402 13.91 48.7702 13.91H43.8352C43.4852 13.91 43.2402 13.84 43.1002 13.7C42.9836 13.5367 42.9252 13.3033 42.9252 13V8.835C42.9252 8.29833 43.1469 8.03 43.5902 8.03H49.2952C49.7152 8.03 49.9252 8.275 49.9252 8.765V12.895ZM64.4232 20.77C64.0732 20.3733 63.6182 20.0117 63.0582 19.685C62.4982 19.335 61.7865 19.16 60.9232 19.16C60.3165 19.16 59.7915 19.265 59.3482 19.475C58.9048 19.685 58.6832 19.9883 58.6832 20.385C58.6832 20.5483 58.7532 20.7117 58.8932 20.875C59.0565 21.0383 59.4532 21.1783 60.0832 21.295L63.7932 22.065C65.9632 22.5083 67.4798 23.2783 68.3432 24.375C69.2298 25.4717 69.6732 26.6967 69.6732 28.05C69.6732 29.4033 69.2998 30.5467 68.5532 31.48C67.8065 32.4133 66.7682 33.125 65.4382 33.615C64.1082 34.105 62.5682 34.35 60.8182 34.35C58.5782 34.35 56.7115 33.9767 55.2182 33.23C53.7248 32.4833 52.6865 31.585 52.1032 30.535C51.9865 30.325 51.9282 30.1267 51.9282 29.94C51.9282 29.7533 52.0098 29.6133 52.1732 29.52L55.2182 27.98C55.5215 27.84 55.7432 27.7817 55.8832 27.805C56.0465 27.8283 56.1865 27.91 56.3032 28.05C56.5832 28.3533 56.8865 28.6683 57.2132 28.995C57.5632 29.2983 58.0182 29.555 58.5782 29.765C59.1615 29.975 59.9198 30.0683 60.8532 30.045C61.3432 30.0217 61.7865 29.975 62.1832 29.905C62.5798 29.8117 62.8948 29.6717 63.1282 29.485C63.3615 29.2983 63.4782 29.065 63.4782 28.785C63.4782 28.5517 63.3732 28.3417 63.1632 28.155C62.9765 27.9683 62.5448 27.8167 61.8682 27.7L58.2982 27.07C56.5248 26.7433 55.1365 26.1367 54.1332 25.25C53.1298 24.34 52.6165 23.0917 52.5932 21.505C52.5932 20.2917 52.9082 19.2067 53.5382 18.25C54.1915 17.27 55.1482 16.5 56.4082 15.94C57.6682 15.38 59.1965 15.1 60.9932 15.1C62.9065 15.1 64.5282 15.45 65.8582 16.15C67.2115 16.8267 68.1448 17.5967 68.6582 18.46C68.7748 18.6233 68.8682 18.81 68.9382 19.02C69.0082 19.23 68.9148 19.3933 68.6582 19.51L65.4382 21.05C65.2282 21.1433 65.0415 21.1667 64.8782 21.12C64.7148 21.05 64.5632 20.9333 64.4232 20.77ZM81.2587 32.53C80.6287 33.0433 79.8937 33.475 79.0537 33.825C78.237 34.175 77.2804 34.35 76.1837 34.35C74.4337 34.35 73.057 33.86 72.0537 32.88C71.0737 31.9 70.5837 30.6867 70.5837 29.24C70.5837 27.8633 71.0154 26.6617 71.8787 25.635C72.7654 24.6083 74.0137 23.815 75.6237 23.255C77.2337 22.6717 79.1354 22.38 81.3287 22.38H81.5737C81.667 22.38 81.772 22.3567 81.8887 22.31C82.0287 22.24 82.0987 22.1 82.0987 21.89V21.295C82.0987 20.6417 81.9237 20.14 81.5737 19.79C81.247 19.44 80.7337 19.265 80.0337 19.265C79.5437 19.265 79.042 19.3817 78.5287 19.615C78.0154 19.825 77.607 20.2567 77.3037 20.91C77.2104 21.0967 77.1054 21.225 76.9887 21.295C76.8954 21.3417 76.6854 21.3417 76.3587 21.295L71.7737 20.385C71.6104 20.3383 71.482 20.2567 71.3887 20.14C71.3187 20 71.3654 19.7083 71.5287 19.265C72.0654 17.7717 73.092 16.71 74.6087 16.08C76.1487 15.4267 78.062 15.1 80.3487 15.1C82.5187 15.1 84.2104 15.345 85.4237 15.835C86.637 16.325 87.4887 17.0017 87.9787 17.865C88.492 18.7283 88.7487 19.7317 88.7487 20.875V33.055C88.7487 33.405 88.6904 33.65 88.5737 33.79C88.4804 33.93 88.2704 34 87.9437 34H83.1487C82.8454 34 82.6237 33.8833 82.4837 33.65C82.367 33.3933 82.2854 33.1017 82.2387 32.775L82.2037 32.53C82.1337 32.0633 81.8187 32.0633 81.2587 32.53ZM82.0987 26.16C82.0987 25.74 81.9237 25.53 81.5737 25.53H81.4337C81.1537 25.53 80.7804 25.5883 80.3137 25.705C79.8704 25.7983 79.427 25.9617 78.9837 26.195C78.5404 26.405 78.1554 26.685 77.8287 27.035C77.5254 27.385 77.3737 27.805 77.3737 28.295C77.3737 28.785 77.5487 29.1817 77.8987 29.485C78.2487 29.7883 78.7387 29.94 79.3687 29.94C79.8354 29.94 80.2204 29.87 80.5237 29.73C80.8504 29.59 81.107 29.4383 81.2937 29.275C81.5037 29.0883 81.6904 28.9017 81.8537 28.715C82.017 28.505 82.0987 28.2717 82.0987 28.015V26.16Z" fill="white"/>
</g>
<g filter="url(#filter1_dd_113_133)">
<path d="M16.3 61.35C13.85 61.35 11.7033 60.79 9.86 59.67C8.01667 58.55 6.58167 56.9983 5.555 55.015C4.55167 53.0083 4.05 50.71 4.05 48.12C4.05 45.4133 4.58667 43.0567 5.66 41.05C6.73333 39.0433 8.22667 37.48 10.14 36.36C12.0533 35.24 14.2583 34.68 16.755 34.68C18.855 34.68 20.6867 35.065 22.25 35.835C23.8133 36.5817 25.0617 37.5383 25.995 38.705C26.9517 39.8717 27.57 41.085 27.85 42.345C27.9667 42.835 27.9783 43.15 27.885 43.29C27.815 43.43 27.64 43.5233 27.36 43.57L21.375 44.48C21.095 44.48 20.92 44.4217 20.85 44.305C20.78 44.1883 20.7217 44.0133 20.675 43.78C20.5583 43.1267 20.3367 42.5317 20.01 41.995C19.6833 41.435 19.24 40.98 18.68 40.63C18.12 40.28 17.42 40.105 16.58 40.105C15.7167 40.105 14.97 40.35 14.34 40.84C13.71 41.3067 13.22 42.1117 12.87 43.255C12.5433 44.375 12.38 45.9267 12.38 47.91C12.38 50.01 12.5667 51.6433 12.94 52.81C13.3133 53.9533 13.8383 54.7583 14.515 55.225C15.1917 55.6683 15.9733 55.89 16.86 55.89C17.35 55.89 17.7933 55.8433 18.19 55.75C18.5867 55.6333 18.9367 55.47 19.24 55.26C19.5667 55.05 19.835 54.7933 20.045 54.49C20.2783 54.1867 20.4767 53.8367 20.64 53.44L20.745 53.125C20.885 52.7283 20.78 52.53 20.43 52.53H17.14C16.9067 52.53 16.7317 52.4833 16.615 52.39C16.4983 52.2733 16.44 52.0633 16.44 51.76V48.4C16.44 48.0033 16.685 47.805 17.175 47.805L26.975 47.875C27.4183 47.875 27.745 47.98 27.955 48.19C28.1883 48.3767 28.305 48.6333 28.305 48.96V60.405C28.305 60.5683 28.2467 60.7083 28.13 60.825C28.0367 60.9417 27.8967 61 27.71 61H26.38C26.17 61 25.9717 60.9533 25.785 60.86C25.6217 60.7433 25.4467 60.5683 25.26 60.335L23.86 58.305C23.8133 58.235 23.755 58.2 23.685 58.2C23.6383 58.2 23.5683 58.2583 23.475 58.375C23.055 58.7717 22.5533 59.2033 21.97 59.67C21.3867 60.1367 20.64 60.5333 19.73 60.86C18.82 61.1867 17.6767 61.35 16.3 61.35ZM31.971 61C31.621 61 31.376 60.93 31.236 60.79C31.1193 60.65 31.061 60.4283 31.061 60.125V43.255C31.061 42.7183 31.2826 42.45 31.726 42.45H37.186C37.606 42.45 37.816 42.6833 37.816 43.15V45.11C37.816 45.2733 37.886 45.3783 38.026 45.425C38.166 45.4483 38.2943 45.3783 38.411 45.215C38.7843 44.6317 39.2626 44.1067 39.846 43.64C40.4293 43.1733 41.0476 42.8 41.701 42.52C42.3543 42.24 42.9493 42.1 43.486 42.1C44.3493 42.1 44.781 42.3333 44.781 42.8V48.12C44.781 48.61 44.5476 48.7967 44.081 48.68C43.5443 48.54 42.9843 48.4467 42.401 48.4C41.841 48.33 41.3976 48.295 41.071 48.295C40.6976 48.295 40.3243 48.365 39.951 48.505C39.601 48.6217 39.2743 48.7967 38.971 49.03C38.691 49.2633 38.4693 49.52 38.306 49.8C38.1426 50.08 38.061 50.3717 38.061 50.675V59.985C38.061 60.6617 37.676 61 36.906 61H31.971ZM55.7909 59.53C55.1609 60.0433 54.4259 60.475 53.5859 60.825C52.7693 61.175 51.8126 61.35 50.7159 61.35C48.9659 61.35 47.5893 60.86 46.5859 59.88C45.6059 58.9 45.1159 57.6867 45.1159 56.24C45.1159 54.8633 45.5476 53.6617 46.4109 52.635C47.2976 51.6083 48.5459 50.815 50.1559 50.255C51.7659 49.6717 53.6676 49.38 55.8609 49.38H56.1059C56.1993 49.38 56.3043 49.3567 56.4209 49.31C56.5609 49.24 56.6309 49.1 56.6309 48.89V48.295C56.6309 47.6417 56.4559 47.14 56.1059 46.79C55.7793 46.44 55.2659 46.265 54.5659 46.265C54.0759 46.265 53.5743 46.3817 53.0609 46.615C52.5476 46.825 52.1393 47.2567 51.8359 47.91C51.7426 48.0967 51.6376 48.225 51.5209 48.295C51.4276 48.3417 51.2176 48.3417 50.8909 48.295L46.3059 47.385C46.1426 47.3383 46.0143 47.2567 45.9209 47.14C45.8509 47 45.8976 46.7083 46.0609 46.265C46.5976 44.7717 47.6243 43.71 49.1409 43.08C50.6809 42.4267 52.5943 42.1 54.8809 42.1C57.0509 42.1 58.7426 42.345 59.9559 42.835C61.1693 43.325 62.0209 44.0017 62.5109 44.865C63.0243 45.7283 63.2809 46.7317 63.2809 47.875V60.055C63.2809 60.405 63.2226 60.65 63.1059 60.79C63.0126 60.93 62.8026 61 62.4759 61H57.6809C57.3776 61 57.1559 60.8833 57.0159 60.65C56.8993 60.3933 56.8176 60.1017 56.7709 59.775L56.7359 59.53C56.6659 59.0633 56.3509 59.0633 55.7909 59.53ZM56.6309 53.16C56.6309 52.74 56.4559 52.53 56.1059 52.53H55.9659C55.6859 52.53 55.3126 52.5883 54.8459 52.705C54.4026 52.7983 53.9593 52.9617 53.5159 53.195C53.0726 53.405 52.6876 53.685 52.3609 54.035C52.0576 54.385 51.9059 54.805 51.9059 55.295C51.9059 55.785 52.0809 56.1817 52.4309 56.485C52.7809 56.7883 53.2709 56.94 53.9009 56.94C54.3676 56.94 54.7526 56.87 55.0559 56.73C55.3826 56.59 55.6393 56.4383 55.8259 56.275C56.0359 56.0883 56.2226 55.9017 56.3859 55.715C56.5493 55.505 56.6309 55.2717 56.6309 55.015V53.16ZM67.2444 61C66.6377 61 66.3344 60.7083 66.3344 60.125V43.255C66.3344 42.7183 66.5561 42.45 66.9994 42.45H72.6344C73.0544 42.45 73.2644 42.6833 73.2644 43.15V44.725C73.2644 44.865 73.2994 44.9583 73.3694 45.005C73.4627 45.0517 73.5794 45.005 73.7194 44.865C74.2094 44.3283 74.7461 43.85 75.3294 43.43C75.9127 43.01 76.5311 42.6833 77.1844 42.45C77.8611 42.2167 78.5611 42.1 79.2844 42.1C80.9177 42.1 82.2361 42.6133 83.2394 43.64C84.2661 44.6667 84.7794 46.0433 84.7794 47.77V59.95C84.7794 60.65 84.4294 61 83.7294 61H78.5844C78.2811 61 78.0711 60.9417 77.9544 60.825C77.8377 60.685 77.7794 60.4517 77.7794 60.125V48.715C77.7794 48.1783 77.6044 47.77 77.2544 47.49C76.9277 47.1867 76.4844 47.035 75.9244 47.035C75.5744 47.035 75.2361 47.105 74.9094 47.245C74.6061 47.3617 74.3261 47.5483 74.0694 47.805C73.8127 48.0617 73.5677 48.3883 73.3344 48.785V59.985C73.3344 60.6617 72.9494 61 72.1794 61H67.2444ZM96.4689 47.175C96.1655 47.175 96.0139 47.3267 96.0139 47.63V54.35C96.0139 54.9567 96.2005 55.4233 96.5739 55.75C96.9705 56.0533 97.6005 56.205 98.4639 56.205H99.9689C100.156 56.205 100.307 56.275 100.424 56.415C100.541 56.555 100.599 56.7183 100.599 56.905L100.564 59.705C100.564 60.265 100.226 60.615 99.5489 60.755C99.0355 60.825 98.5105 60.8833 97.9739 60.93C97.4605 60.9533 96.9355 60.9767 96.3989 61C95.8855 61 95.3605 61 94.8239 61C93.1439 61 91.7555 60.6033 90.6589 59.81C89.5622 58.9933 89.0139 57.8383 89.0139 56.345V47.805C89.0139 47.385 88.8389 47.175 88.4889 47.175H86.8089C86.2489 47.175 85.9689 46.9183 85.9689 46.405V43.115C85.9689 42.6717 86.2255 42.45 86.7389 42.45H88.8039C89.0605 42.45 89.2005 42.31 89.2239 42.03L89.7839 36.85C89.8305 36.3833 90.0405 36.15 90.4139 36.15H95.5589C96.0022 36.15 96.2239 36.4067 96.2239 36.92V42.03C96.2239 42.2867 96.3522 42.415 96.6089 42.415H99.8289C100.342 42.415 100.599 42.6367 100.599 43.08V46.405C100.599 46.9183 100.307 47.175 99.7239 47.175H96.4689Z" fill="white"/>
</g>
<defs>
<filter id="filter0_d_113_133" x="16.8199" y="8.02979" width="75.9287" height="34.3203" filterUnits="userSpaceOnUse" color-interpolation-filters="sRGB">
<feFlood flood-opacity="0" result="BackgroundImageFix"/>
<feColorMatrix in="SourceAlpha" type="matrix" values="0 0 0 0 0 0 0 0 0 0 0 0 0 0 0 0 0 0 127 0" result="hardAlpha"/>
<feOffset dy="4"/>
<feGaussianBlur stdDeviation="2"/>
<feComposite in2="hardAlpha" operator="out"/>
<feColorMatrix type="matrix" values="0 0 0 0 0 0 0 0 0 0 0 0 0 0 0 0 0 0 0.25 0"/>
<feBlend mode="normal" in2="BackgroundImageFix" result="effect1_dropShadow_113_133"/>
<feBlend mode="normal" in="SourceGraphic" in2="effect1_dropShadow_113_133" result="shape"/>
</filter>
<filter id="filter1_dd_113_133" x="0.0500488" y="34.6802" width="104.549" height="34.6699" filterUnits="userSpaceOnUse" color-interpolation-filters="sRGB">
<feFlood flood-opacity="0" result="BackgroundImageFix"/>
<feColorMatrix in="SourceAlpha" type="matrix" values="0 0 0 0 0 0 0 0 0 0 0 0 0 0 0 0 0 0 127 0" result="hardAlpha"/>
<feOffset dy="4"/>
<feGaussianBlur stdDeviation="2"/>
<feComposite in2="hardAlpha" operator="out"/>
<feColorMatrix type="matrix" values="0 0 0 0 0 0 0 0 0 0 0 0 0 0 0 0 0 0 0.25 0"/>
<feBlend mode="normal" in2="BackgroundImageFix" result="effect1_dropShadow_113_133"/>
<feColorMatrix in="SourceAlpha" type="matrix" values="0 0 0 0 0 0 0 0 0 0 0 0 0 0 0 0 0 0 127 0" result="hardAlpha"/>
<feOffset dy="4"/>
<feGaussianBlur stdDeviation="2"/>
<feComposite in2="hardAlpha" operator="out"/>
<feColorMatrix type="matrix" values="0 0 0 0 0 0 0 0 0 0 0 0 0 0 0 0 0 0 0.25 0"/>
<feBlend mode="normal" in2="effect1_dropShadow_113_133" result="effect2_dropShadow_113_133"/>
<feBlend mode="normal" in="SourceGraphic" in2="effect2_dropShadow_113_133" result="shape"/>
</filter>
</defs>
</svg>
